<?xml version="1.0" standalone="no"?>
<!DOCTYPE svg PUBLIC "-//W3C//DTD SVG 20010904//EN"
 "http://www.w3.org/TR/2001/REC-SVG-20010904/DTD/svg10.dtd">
<svg version="1.0" xmlns="http://www.w3.org/2000/svg"
 width="512.000000pt" height="512.000000pt" viewBox="0 0 512.000000 512.000000"
 preserveAspectRatio="xMidYMid meet">
<metadata>
Created by potrace 1.11, written by Peter Selinger 2001-2013
</metadata>
<g transform="translate(0.000000,512.000000) scale(0.100000,-0.100000)"
fill="#000000" stroke="none">
<path d="M2477 4694 c-1 -1 -38 -5 -82 -8 -228 -18 -503 -86 -690 -172 -33
-15 -62 -28 -65 -28 -19 -4 -202 -110 -280 -164 -153 -105 -342 -276 -435
-392 -11 -14 -36 -46 -56 -70 -114 -143 -255 -401 -319 -585 -35 -100 -85
-294 -95 -368 -4 -27 -8 -59 -11 -70 -14 -72 -21 -418 -10 -473 2 -12 7 -45
11 -75 15 -136 76 -385 115 -474 5 -11 27 -63 49 -115 57 -131 148 -287 241
-413 80 -107 252 -289 349 -368 29 -24 59 -49 65 -54 34 -32 227 -152 326
-203 175 -90 451 -185 573 -197 21 -2 41 -6 46 -9 7 -5 44 -10 161 -21 56 -6
323 -7 370 -1 19 2 62 7 95 11 120 13 296 53 390 88 17 7 35 12 40 13 20 4
185 74 244 103 422 213 770 566 969 982 70 146 76 162 112 274 45 143 78 302
95 465 5 44 6 323 1 370 -8 81 -20 168 -31 220 -3 14 -8 39 -10 55 -11 58 -62
233 -85 290 -103 249 -212 440 -345 601 -46 56 -228 241 -295 299 -83 72 -292
205 -424 270 -146 71 -264 114 -406 150 -120 30 -132 33 -250 50 -67 10 -356
25 -363 19z m305 -1659 c345 -258 627 -472 627 -475 0 -3 -79 -63 -175 -135
-97 -71 -181 -134 -187 -140 -7 -5 -41 -32 -77 -58 -36 -27 -207 -155 -380
-285 -174 -130 -327 -245 -340 -254 -14 -10 -46 -33 -71 -52 l-45 -35 0 955
c0 671 3 954 10 952 6 -2 293 -214 638 -473z"/>
</g>
</svg>
