<?xml version="1.0" encoding="UTF-8" standalone="no"?>
<svg
   xmlns:dc="http://purl.org/dc/elements/1.1/"
   xmlns:cc="http://creativecommons.org/ns#"
   xmlns:rdf="http://www.w3.org/1999/02/22-rdf-syntax-ns#"
   xmlns:svg="http://www.w3.org/2000/svg"
   xmlns="http://www.w3.org/2000/svg"
   xmlns:sodipodi="http://sodipodi.sourceforge.net/DTD/sodipodi-0.dtd"
   xmlns:inkscape="http://www.inkscape.org/namespaces/inkscape"
   viewBox="0 0 512 512"
   version="1.1"
   id="svg122"
   sodipodi:docname="gitlab.svg"
   inkscape:version="0.92.4 (5da689c313, 2019-01-14)">
  <metadata
     id="metadata128">
    <rdf:RDF>
      <cc:Work
         rdf:about="">
        <dc:format>image/svg+xml</dc:format>
        <dc:type
           rdf:resource="http://purl.org/dc/dcmitype/StillImage" />
      </cc:Work>
    </rdf:RDF>
  </metadata>
  <defs
     id="defs126" />
  <sodipodi:namedview
     pagecolor="#ffffff"
     bordercolor="#666666"
     borderopacity="1"
     objecttolerance="10"
     gridtolerance="10"
     guidetolerance="10"
     inkscape:pageopacity="0"
     inkscape:pageshadow="2"
     inkscape:window-width="1366"
     inkscape:window-height="728"
     id="namedview124"
     showgrid="false"
     inkscape:zoom="0.731966"
     inkscape:cx="13.952562"
     inkscape:cy="171.95012"
     inkscape:window-x="1366"
     inkscape:window-y="0"
     inkscape:window-maximized="1"
     inkscape:current-layer="svg122" />
  <rect
     width="512"
     height="512"
     rx="15%"
     fill="#30353e"
     id="rect114" />
  <path
     fill="#e24329"
     d="M84 215l43-133c2-7 12-7 14 0l115 353L371 82c2-7 12-7 14 0l43 133"
     id="path116"
     style="fill:#fffbfb;fill-opacity:1" />
  <path
     fill="#fc6d26"
     d="M256 435L84 215h100.4zm71.7-220H428L256 435l71.6-220z"
     id="path118"
     style="fill:#f9f9f9;fill-opacity:1;stroke:#ffffff;stroke-opacity:1" />
  <path
     fill="#fca326"
     d="M84 215l-22 67c-2 6 0 13 6 16l188 137zm344 0l22 67c2 6 0 13-6 16L256 435z"
     id="path120"
     style="fill:#ffffff;fill-opacity:1" />
</svg>
