<svg width="500" height="500" viewBox="0 0 500 500" xmlns="http://www.w3.org/2000/svg" xmlns:xlink="http://www.w3.org/1999/xlink">
<path fill="currentColor" d="M60 252.959c0-39.941 5.917-75.567 17.751-106.88 11.835-31.31 28.107-57.815 48.817-79.511 20.71-21.696 45.118-38.215 73.225-49.556C227.9 5.67 257.978 0 290.03 0c31.065 0 58.555 6.287 82.47 18.86 23.915 12.575 44.009 26.751 60.281 42.53l-59.911 67.308c-11.341-10.355-23.669-18.737-36.982-25.148-13.314-6.41-28.6-9.615-45.858-9.615-17.259 0-33.038 3.575-47.338 10.725-14.3 7.15-26.75 17.381-37.352 30.695-10.601 13.314-18.86 29.586-24.778 48.817-5.917 19.23-8.876 40.926-8.876 65.088 0 49.803 11.341 88.388 34.024 115.755 22.683 27.367 52.268 41.05 88.757 41.05 17.259 0 32.915-3.945 46.968-11.834 14.053-7.89 26.997-18.245 38.831-31.065l59.912 65.828C399.743 476.332 348.955 500 287.81 500c-31.066 0-60.405-5.3-88.018-15.902-27.614-10.602-51.775-26.258-72.485-46.968-20.71-20.71-37.106-46.474-49.187-77.293C66.041 329.02 60 293.393 60 252.96z" />
</svg>
