<svg width="400" height="400" viewBox="0 0 400 400" xmlns="http://www.w3.org/2000/svg"><title>web/icono</title><g fill="none" fill-rule="evenodd"><path d="M361.864 165.156c0-45.548-15.769-84.46-47.306-116.739C283.021 16.14 245.002 0 200.5 0c-44.502 0-82.521 16.139-114.058 48.417-31.537 32.278-47.306 71.191-47.306 116.74 0 36.94 10.688 69.935 32.063 98.985 18.221 23.312 61.321 64.73 129.301 122.472 67.98-57.742 111.08-99.16 129.301-122.472 21.375-29.05 32.063-62.045 32.063-98.986z" fill="#EC008C" style="mix-blend-mode:multiply"/><path d="M345.727 178.043c0-45.548-15.768-84.46-47.305-116.739-31.537-32.278-69.556-48.417-114.058-48.417-44.503 0-82.522 16.139-114.059 48.417C38.768 93.582 23 132.495 23 178.044c0 36.94 10.687 69.935 32.062 98.985 18.222 23.312 61.322 64.73 129.302 122.472 67.98-57.742 111.08-99.16 129.3-122.472 21.376-29.05 32.063-62.045 32.063-98.986z" fill="#00AEEF" style="mix-blend-mode:multiply"/><path d="M378 178.043c0-45.548-15.768-84.46-47.305-116.739-31.537-32.278-69.556-48.417-114.059-48.417-44.502 0-82.52 16.139-114.058 48.417-31.537 32.278-47.305 71.191-47.305 116.74 0 36.94 10.687 69.935 32.062 98.985 18.222 23.312 61.322 64.73 129.301 122.472 67.98-57.742 111.08-99.16 129.302-122.472C367.313 247.98 378 214.984 378 178.043z" fill="#FFF200" style="mix-blend-mode:multiply"/></g></svg>